<?xml version="1.0" encoding="utf-8"?>
<!-- Generator: Adobe Illustrator 22.0.1, SVG Export Plug-In . SVG Version: 6.00 Build 0)  -->
<svg version="1.1" id="Ebene_1" xmlns="http://www.w3.org/2000/svg" xmlns:xlink="http://www.w3.org/1999/xlink" x="0px" y="0px"
	 viewBox="0 0 1875.1 395" style="enable-background:new 0 0 1875.1 395;" xml:space="preserve">
<style type="text/css">
	.st0{enable-background:new    ;}
	.st1{fill:none;enable-background:new    ;}
	.st2{fill:#FFFFFF;}
</style>
<g class="st0">
	<path class="st1" d="M824.1-215.6"/>
	<path class="st2" d="M284.1,131.8c-77.5,2.7-83.2-30.8-116.2-56.7c-36.6-28.7-60.1-24.6-99.4-3.6c-102.5,54.6-82.8,123,11.6,206.9
		c-1,14-6,25.8-7.1,39.8c-0.5,6.6-4.6,72.6,3.4,72.6h66.4c-10.1-14.8-23-6-24.4-13.6c-5.1-28.3,6.6-64.5,27.5-75
		c16.3-5,34.1-23.9,40.2-36.3c3.1,0.5,6.3,1,9.4,1.6c-10.5,33.9-25.1,28.7-50,51.1c1,13.5-1,33.7,0,47.2c2.1,7.8,4.4,17.2,6.4,25
		c24.5,0.5,48.3-0.5,72.8,0c-6.9-4.1-8.6-8.4-13.8-11.6c-10.5-6.5-17.4-1.8-22-7.3c-10.4-12.6-7-37.4,6.6-77.9
		c21.6,19.2,35.7,15.9,78,0c-9.9,41.5-5.5,54.4-3,96.8c23.4-0.5,47.5,0.5,70.9,0c-3.6-2.7-12.7-13.4-27-15.4
		c-6.1-0.9,0.4-14.1-0.9-14.4c17.1-47.2,22.3-42.6,13-93.5l5.8,0.4c6.1,0.4,4.2,22.1,6.7,27.7c10.3,34.1,18.9,61.3,50.1,95.3
		c22.9-0.5,45,0.5,67.9,0c-17.5-8.8-27.1-19.2-43.1-18.4c-10.2-44.3-17.3-68.9-18.7-114.3c10.9-12.5,21.8-25,32.8-37.4
		c17.6-34,15-27.9,32.8-79.6c-15.1,10.8-21,10-39,14c0.5-3.1,1-6.3,1.6-9.4c99-30.5,78.3-175.6,28.1-112.3
		c23,32.8,31.9,46.2-11.3,55.8c-13.5,52.7-61.8,34.8-57.7-4.3c-30.2-2.1-37-45.2,0.7-55.6c3-0.9-3.8-2.5-20.6-11.5
		c-59.3-8.2-25.3,94.8-3.1,117c-7.3-4.7-14.5-9.4-21.8-14c-10.9,103.8-93.5,66.5-160.8,66.5c-104.7,87.4-128.2-81.2-3-38.4
		C198.8,158.4,259,188.7,284.1,131.8L284.1,131.8z M423.2,106.8c-8.9-0.1-17.8-0.1-26.7-0.2c0.5-1.8-1.8-0.9,8.8-5
		c-0.6-1.4-0.2-4.3-0.9-5.8c-10.2-2.9-9.8-3.1-9.5-5.8c0.7-7.1,29.7-8.4,31.9-0.2c0.7,2.6-2.4,3.5-3.7,4.2c-2.5,1.4-5,0.6-8,1.8
		c-1.4,1.4-0.7,4.3-0.1,5.8C418.9,104.5,424.4,105.1,423.2,106.8z M451.1,58.6c4.1,0,7.4,3.3,7.4,7.4s-3.3,7.4-7.4,7.4
		s-7.4-3.3-7.4-7.4S447,58.6,451.1,58.6z M373.9,58.6c4.2,0,7.7,3.5,7.7,7.7s-3.5,7.7-7.7,7.7s-7.7-3.5-7.7-7.7
		C366.2,62.1,369.6,58.6,373.9,58.6z"/>
</g>
<g>
	<path class="st2" d="M697.3,14.2v367.5h-87.6V14.2H697.3z"/>
	<path class="st2" d="M861.8,14.2v299.5h194.1v67.9H774.2V14.2H861.8z"/>
	<path class="st2" d="M1022.4,82.2V14.3h326.3v67.9h-119.4v299.5h-87.6V82.2H1022.4z"/>
	<path class="st2" d="M1481.9,14.2v367.5h-87.6V14.2H1481.9z"/>
	<path class="st2" d="M1625.8,291.1c4.8,8.6,11.2,15.5,19.2,20.8s17.4,9.3,28.2,11.8c10.8,2.6,21.9,3.9,33.5,3.9
		c7.8,0,16.2-0.6,25.1-1.8c8.9-1.2,17.3-3.5,25.1-6.9c7.8-3.4,14.3-8.1,19.5-14.2c5.2-6,7.8-13.6,7.8-22.9c0-9.9-3.4-18-10.3-24.2
		c-6.9-6.2-15.9-11.3-27-15.4c-11.1-4.1-23.8-7.7-37.9-10.8c-14.1-3.1-28.4-6.5-42.9-10.3c-14.9-3.4-29.4-7.6-43.5-12.6
		c-14.1-5-26.8-11.4-37.9-19.3c-11.2-7.9-20.2-17.8-27-29.6c-6.9-11.8-10.3-26.2-10.3-43c0-18.9,4.4-35.3,13.1-49.2
		c8.7-13.9,20.2-25.5,34.3-34.7c14.1-9.3,30.1-16.1,48-20.6c17.8-4.5,35.7-6.7,53.5-6.7c20.8,0,40.8,2.1,60,6.4
		c19.1,4.3,36.2,11.2,51,20.8c14.9,9.6,26.7,21.9,35.4,36.8c8.7,14.9,13.1,33,13.1,54.3H1771c-0.8-11-3.3-20.1-7.5-27.3
		c-4.3-7.2-10-12.9-17-17c-7.1-4.1-15.2-7-24.3-8.7s-19.1-2.6-29.8-2.6c-7.1,0-14.1,0.7-21.2,2.1c-7.1,1.4-13.5,3.8-19.2,7.2
		c-5.8,3.4-10.5,7.7-14.2,12.9c-3.7,5.1-5.6,11.7-5.6,19.6c0,7.2,1.5,13,4.5,17.5s8.8,8.6,17.6,12.4c8.7,3.8,20.8,7.6,36.3,11.3
		c15.4,3.8,35.6,8.6,60.5,14.4c7.4,1.4,17.8,3.9,31,7.5c13.2,3.6,26.3,9.4,39.3,17.2c13,7.9,24.3,18.4,33.7,31.7
		c9.5,13.2,14.2,30.1,14.2,50.7c0,16.8-3.5,32.4-10.6,46.8c-7.1,14.4-17.6,26.9-31.5,37.3c-13.9,10.5-31.2,18.6-51.9,24.4
		s-44.5,8.7-71.7,8.7c-21.9,0-43.2-2.5-63.9-7.5c-20.6-5-38.9-12.8-54.7-23.4c-15.8-10.6-28.4-24.2-37.6-40.7
		c-9.3-16.5-13.8-36-13.4-58.7h84.8C1618.6,272.1,1621,282.6,1625.8,291.1z"/>
</g>
</svg>
